<svg width="512" height="512" viewBox="0 0 512 512" fill="none" xmlns="http://www.w3.org/2000/svg" role="img" aria-labelledby="title desc">
  <title id="title">AR Logo</title>
  <desc id="desc">Logo AR verde neon con mirino circolare tecnico.</desc>
  <defs>
    <linearGradient id="lime" x1="112" y1="92" x2="404" y2="424" gradientUnits="userSpaceOnUse">
      <stop stop-color="#F0FF5F"/>
      <stop offset="0.48" stop-color="#BFFF3E"/>
      <stop offset="1" stop-color="#78D91F"/>
    </linearGradient>
    <filter id="glow" x="-18%" y="-18%" width="136%" height="136%" color-interpolation-filters="sRGB">
      <feGaussianBlur stdDeviation="5" result="blur"/>
      <feColorMatrix in="blur" type="matrix" values="0 0 0 0 0.72 0 0 0 0 1 0 0 0 0 0.12 0 0 0 0.55 0"/>
      <feMerge>
        <feMergeNode/>
        <feMergeNode in="SourceGraphic"/>
      </feMerge>
    </filter>
  </defs>

  <g filter="url(#glow)">
    <path d="M132 217C149.6 139.7 200.8 96 246 92" stroke="url(#lime)" stroke-width="17" stroke-linecap="square"/>
    <path d="M266 92C329.5 98.6 382.5 148.6 397 217" stroke="url(#lime)" stroke-width="17" stroke-linecap="square"/>
    <path d="M132 295C138.5 321.7 151.7 347.8 172 369" stroke="url(#lime)" stroke-width="17" stroke-linecap="square"/>
    <path d="M204 393C243.4 412.8 292.7 410.2 333 385" stroke="url(#lime)" stroke-width="17" stroke-linecap="square"/>
    <path d="M380 329C386.7 318.5 392.4 307.2 397 295" stroke="url(#lime)" stroke-width="17" stroke-linecap="square"/>

    <path d="M246 90V121" stroke="url(#lime)" stroke-width="16" stroke-linecap="square"/>
    <path d="M266 90V121" stroke="url(#lime)" stroke-width="16" stroke-linecap="square"/>
    <path d="M246 391V422" stroke="url(#lime)" stroke-width="16" stroke-linecap="square"/>
    <path d="M266 391V422" stroke="url(#lime)" stroke-width="16" stroke-linecap="square"/>

    <path d="M74 246H132" stroke="url(#lime)" stroke-width="16" stroke-linecap="square"/>
    <path d="M86 268H132" stroke="url(#lime)" stroke-width="16" stroke-linecap="square"/>
    <path d="M380 246H438" stroke="url(#lime)" stroke-width="16" stroke-linecap="square"/>
    <path d="M380 268H426" stroke="url(#lime)" stroke-width="16" stroke-linecap="square"/>

    <path d="M153 343L222 163L293 343H244L232 309H179L165 343H153ZM195 268H218L207 236L195 268Z" fill="url(#lime)"/>
    <path d="M249 177H312C365 177 397 207 397 252C397 286 379 311 348 322L405 392H348L300 329H268V286H311C337 286 352 275 352 253C352 231 337 220 311 220H266L249 177Z" fill="url(#lime)"/>
  </g>
</svg>
